<svg width="206" height="146" viewBox="0 0 206 146" fill="none" xmlns="http://www.w3.org/2000/svg">
<rect width="206" height="146" fill="#F0E7D5"/>
<path d="M67.78 84.6496L69.36 84.4496V72.4896L67.86 72.2096V70.9896H70.76C71.0134 70.9896 71.2934 70.9829 71.6 70.9696C71.9067 70.9563 72.14 70.9429 72.3 70.9296C72.9934 70.8763 73.5667 70.8496 74.02 70.8496C75.3934 70.8496 76.4934 70.9896 77.32 71.2696C78.1467 71.5496 78.7467 71.9763 79.12 72.5496C79.4934 73.1229 79.68 73.8763 79.68 74.8096C79.68 75.7296 79.4334 76.5829 78.94 77.3696C78.4467 78.1563 77.7334 78.6963 76.8 78.9896C77.3334 79.2163 77.8067 79.6296 78.22 80.2296C78.6334 80.8296 79.0734 81.6096 79.54 82.5696C79.8734 83.2229 80.1267 83.6963 80.3 83.9896C80.4867 84.2696 80.6667 84.4296 80.84 84.4696L81.5 84.6696V85.8496H78.1C77.8867 85.8496 77.66 85.6363 77.42 85.2096C77.1934 84.7696 76.8934 84.0829 76.52 83.1496C76.08 82.0563 75.7 81.2029 75.38 80.5896C75.06 79.9763 74.72 79.5963 74.36 79.4496H72.3V84.4496L74.14 84.6496V85.8496H67.78V84.6496ZM74.14 78.2296C74.9 78.2296 75.4934 77.9563 75.92 77.4096C76.3467 76.8629 76.56 76.0429 76.56 74.9496C76.56 73.9763 76.3467 73.2563 75.92 72.7896C75.5067 72.3229 74.7867 72.0896 73.76 72.0896C73.3867 72.0896 73.0667 72.1096 72.8 72.1496C72.5467 72.1763 72.38 72.1896 72.3 72.1896V78.1896C72.46 78.2163 72.8467 78.2296 73.46 78.2296H74.14Z" fill="#212842"/>
<path d="M83.7741 72.4896L82.1741 72.2296V70.9896H92.8341L93.0941 74.3496H91.6941L91.0341 72.3696L86.7141 72.1896V77.5696L89.4941 77.5096L89.8141 75.8696H91.0941V80.7096H89.8141L89.4941 78.9896L86.7141 78.9296V84.5696L91.5541 84.3296L92.7141 81.7696L94.2141 82.1896L93.6941 85.8496H82.1941V84.6496L83.7741 84.4496V72.4896Z" fill="#212842"/>
<path d="M96.8796 72.4896L95.2796 72.2296V70.9896H105.94L106.2 74.3496H104.8L104.14 72.3696L99.8196 72.1896V77.5696L102.6 77.5096L102.92 75.8696H104.2V80.7096H102.92L102.6 78.9896L99.8196 78.9296V84.5696L104.66 84.3296L105.82 81.7696L107.32 82.1896L106.8 85.8496H95.2996V84.6496L96.8796 84.4496V72.4896Z" fill="#212842"/>
<path d="M109.985 72.4896L108.485 72.2296V70.9896H111.405C111.845 70.9896 112.438 70.9629 113.185 70.9096C113.358 70.8963 113.618 70.8829 113.965 70.8696C114.325 70.8563 114.645 70.8496 114.925 70.8496C117.378 70.8496 119.212 71.4629 120.425 72.6896C121.652 73.9163 122.265 75.6563 122.265 77.9096C122.265 79.4829 121.958 80.8829 121.345 82.1096C120.745 83.3363 119.885 84.2963 118.765 84.9896C117.645 85.6696 116.338 86.0096 114.845 86.0096C114.458 86.0096 113.852 85.9829 113.025 85.9296C112.252 85.8763 111.725 85.8496 111.445 85.8496H108.405V84.6496L109.985 84.4496V72.4896ZM112.885 84.5096C113.338 84.6296 113.972 84.6896 114.785 84.6896C116.118 84.6629 117.165 84.1296 117.925 83.0896C118.685 82.0363 119.065 80.4629 119.065 78.3696C119.065 76.3829 118.692 74.8496 117.945 73.7696C117.198 72.6763 116.038 72.1296 114.465 72.1296C114.132 72.1296 113.812 72.1496 113.505 72.1896C113.212 72.2296 113.005 72.2563 112.885 72.2696V84.5096Z" fill="#212842"/>
<path d="M129.94 86.0696C127.767 86.0696 126.14 85.3896 125.06 84.0296C123.98 82.6696 123.44 80.8163 123.44 78.4696C123.44 76.9363 123.72 75.5896 124.28 74.4296C124.853 73.2696 125.653 72.3763 126.68 71.7496C127.707 71.1229 128.887 70.8096 130.22 70.8096C132.42 70.8096 134.067 71.4629 135.16 72.7696C136.267 74.0629 136.82 75.8763 136.82 78.2096C136.82 79.7563 136.527 81.1296 135.94 82.3296C135.367 83.5163 134.56 84.4363 133.52 85.0896C132.48 85.7429 131.287 86.0696 129.94 86.0696ZM130.14 72.0296C129.047 72.0296 128.193 72.5696 127.58 73.6496C126.967 74.7296 126.66 76.3296 126.66 78.4496C126.66 80.5429 126.953 82.1363 127.54 83.2296C128.14 84.3096 128.993 84.8496 130.1 84.8496C131.18 84.8496 132.027 84.2829 132.64 83.1496C133.253 82.0029 133.56 80.3563 133.56 78.2096C133.56 76.1296 133.267 74.5829 132.68 73.5696C132.093 72.5429 131.247 72.0296 130.14 72.0296Z" fill="#212842"/>
<path d="M104.569 21L104.602 21.001C106.193 21.0559 109.797 21.0434 113.158 22.5518C116.581 24.0878 119.644 27.1391 120.542 32.8281L120.622 33.3867L120.629 33.4434L120.633 33.5C120.78 35.7064 120.058 38.8917 117.647 41.75C115.598 44.1778 112.406 46.2834 107.685 47.4219L119.075 63.8135L116.036 65.9248L101.301 44.7188L104.282 44.3027C109.893 43.5198 113.067 41.44 114.818 39.3643C116.576 37.2814 117.013 35.0764 116.943 33.7988C116.322 29.1173 114.037 27.002 111.644 25.9277C109.08 24.7774 106.269 24.7594 104.5 24.6992H81.6504V21H104.569Z" fill="#212842"/>
<path d="M79.2683 65.8496V25.7378C79.2683 24.407 79.444 23.2966 79.7953 22.4068C80.1466 21.5169 80.5841 21.071 81.1077 21.0691H91.0886C91.6122 21.0691 92.0497 21.515 92.401 22.4068C92.7523 23.2985 92.9276 24.4089 92.9269 25.7378V65.8496L86.0976 58.4045L79.2683 65.8496Z" fill="#BD350F"/>
</svg>
